<?xml version="1.0" encoding="UTF-8"?>
<svg xmlns="http://www.w3.org/2000/svg" onmouseup="{ if(window.parent.document.onmouseup) window.parent.document.onmouseup(arguments[0]);}" width="36" viewBox="0 0 36 36" id="S_LockClosed_18_N_2x" height="36" data-name="S_LockClosed_18_N@2x"><defs><style>
      .fill {
        fill: #6e6e6e;
      }

      
    </style></defs><path data-cppathid="10000" d="M29,16H28V14A10,10,0,0,0,8,14v2H7a1,1,0,0,0-1,1V33a1,1,0,0,0,1,1H29a1,1,0,0,0,1-1V17A1,1,0,0,0,29,16ZM12,14a6,6,0,0,1,12,0v2H12Zm8,12.222V29a1,1,0,0,1-1,1H17a1,1,0,0,1-1-1V26.222a3,3,0,1,1,4,0Z" class="fill"/></svg>