<?xml version="1.0" encoding="UTF-8"?>
<svg xmlns="http://www.w3.org/2000/svg" onmouseup="{ if(window.parent.document.onmouseup) window.parent.document.onmouseup(arguments[0]);}" width="36" viewBox="0 0 36 36" id="S_Building_18_N_2x" height="36" data-name="S_Building_18_N@2x"><defs><style>
      .fill {
        fill: #707070;
      }

      
    </style></defs><path data-cppathid="10000" d="M33,2H5A1,1,0,0,0,4,3V33a1,1,0,0,0,1,1H16V22h6V34H33a1,1,0,0,0,1-1V3A1,1,0,0,0,33,2ZM12,26H6V22h6Zm0-8H6V14h6Zm0-8H6V6h6Zm10,8H16V14h6Zm0-8H16V6h6ZM32,26H26V22h6Zm0-8H26V14h6Zm0-8H26V6h6Z" class="fill"/></svg>